<svg width="1071" height="302" viewBox="0 0 1071 302" fill="none" xmlns="http://www.w3.org/2000/svg">
<mask id="mask0_81_4368" style="mask-type:luminance" maskUnits="userSpaceOnUse" x="816" y="0" width="255" height="302">
<path d="M816.334 0.453125H1070.74V301.302H816.334V0.453125Z" fill="white"/>
</mask>
<g mask="url(#mask0_81_4368)">
<path d="M922.677 150.604L1070.64 2.65641L1068.51 0.520996H966.443L965.844 1.12516L817 149.969L817.635 150.604L817 151.245L966.443 300.693H1068.51L1070.64 298.568L922.677 150.604ZM968.156 296.542L822.833 151.219L823.474 150.584L822.833 149.943L968.156 4.66683H1062.77L916.828 150.604L1062.77 296.542H968.156Z" fill="#FFD521"/>
</g>
<mask id="mask1_81_4368" style="mask-type:luminance" maskUnits="userSpaceOnUse" x="611" y="0" width="255" height="302">
<path d="M611 0.453125H865.667V301.302H611V0.453125Z" fill="white"/>
</mask>
<g mask="url(#mask1_81_4368)">
<path d="M865.667 2.64079L863.532 0.520996H761.469L612.021 149.969L612.662 150.604L612.021 151.245L761.469 300.693H863.532L865.667 298.568L717.714 150.604L865.667 2.64079ZM857.824 296.568H763.183L617.86 151.245L618.501 150.604L617.86 149.969L763.183 4.66683H857.839L711.902 150.604L857.824 296.568Z" fill="#FFD521"/>
</g>
<path d="M657.771 2.65641L657.708 2.5835H557.349L409.969 149.969L410.604 150.604L409.969 151.245L557.349 298.63H657.708L657.771 298.568L509.818 150.604L657.771 2.65641Z" fill="#FFD521"/>
<path d="M452.798 2.65641L452.735 2.5835H352.386L205.006 149.969L205.631 150.604L205.006 151.245L352.386 298.63H452.735L452.798 298.568L304.844 150.604L452.798 2.65641Z" fill="#FFD521"/>
<path d="M247.833 2.65641L247.76 2.5835H147.411L0.0253906 149.969L0.666016 150.604L0.0253906 151.245L147.411 298.63H247.76L247.833 298.568L99.8691 150.604L247.833 2.65641Z" fill="#FFD521"/>
</svg>
