<svg width="134" height="134" viewBox="0 0 134 134" fill="none" xmlns="http://www.w3.org/2000/svg">
<path fill-rule="evenodd" clip-rule="evenodd" d="M73.364 2.65328C69.8492 -0.861435 64.1508 -0.861437 60.636 2.65328L2.65328 60.636C-0.861435 64.1508 -0.861437 69.8492 2.65328 73.364L60.636 131.347C64.1508 134.861 69.8492 134.861 73.364 131.347L131.347 73.364C134.861 69.8492 134.861 64.1508 131.347 60.636L73.364 2.65328ZM72.9325 16.364C69.4178 12.8492 63.7193 12.8492 60.2046 16.364L16.364 60.2046C12.8492 63.7193 12.8492 69.4178 16.364 72.9325L60.2046 116.773C63.7193 120.288 69.4178 120.288 72.9325 116.773L116.773 72.9325C120.288 69.4178 120.288 63.7193 116.773 60.2046L72.9325 16.364Z" fill="url(#paint0_linear_6_16)"/>
<defs>
<linearGradient id="paint0_linear_6_16" x1="45.5" y1="-17.5" x2="101.5" y2="159" gradientUnits="userSpaceOnUse">
<stop stop-color="#FFB412"/>
<stop offset="0.98579" stop-color="#F9336B"/>
</linearGradient>
</defs>
</svg>
