<svg width="135" height="134" viewBox="0 0 135 134" fill="none" xmlns="http://www.w3.org/2000/svg">
<path fill-rule="evenodd" clip-rule="evenodd" d="M73.6361 2.63604C70.1214 -0.878679 64.4229 -0.878681 60.9082 2.63604L2.92541 60.6188C-0.589311 64.1335 -0.589313 69.832 2.92541 73.3467L60.9082 131.329C64.4229 134.844 70.1214 134.844 73.6361 131.329L131.619 73.3467C135.134 69.832 135.134 64.1335 131.619 60.6188L73.6361 2.63604ZM73.2046 16.3467C69.6899 12.832 63.9914 12.832 60.4767 16.3467L16.6361 60.1873C13.1214 63.7021 13.1214 69.4005 16.6361 72.9153L60.4767 116.756C63.9914 120.271 69.6899 120.271 73.2046 116.756L117.045 72.9153C120.56 69.4005 120.56 63.7021 117.045 60.1873L73.2046 16.3467Z" fill="url(#paint0_linear_71_13)"/>
<path d="M50.4558 41.9706L92.8822 84.397H75.9117L63.1837 71.6691L41.9705 50.4558L50.4558 41.9706Z" fill="#D9D9D9"/>
<path d="M75.9117 33.4853L88.6396 46.2132L109.853 67.4264L101.368 75.9117L58.9411 33.4853L75.9117 33.4853Z" fill="#D9D9D9"/>
<path d="M41.9706 67.4264L54.6985 80.1543L75.9117 101.368L58.9411 101.368L46.2132 88.6396L25 67.4264L41.9706 67.4264Z" fill="#D9D9D9"/>
<defs>
<linearGradient id="paint0_linear_71_13" x1="46.9056" y1="-13.0623" x2="99.9533" y2="154.132" gradientUnits="userSpaceOnUse">
<stop stop-color="#FFB412"/>
<stop offset="0.98579" stop-color="#F9336B"/>
</linearGradient>
</defs>
</svg>
