<svg width="1068" height="355" viewBox="0 0 1068 355" fill="none" xmlns="http://www.w3.org/2000/svg">
<mask id="mask0_81_4366" style="mask-type:luminance" maskUnits="userSpaceOnUse" x="0" y="0" width="1068" height="355">
<path d="M0.666016 0.453125H1067.33V355H0.666016V0.453125Z" fill="white"/>
</mask>
<g mask="url(#mask0_81_4366)">
<path fill-rule="evenodd" clip-rule="evenodd" d="M711.171 177.703H888.936V0.5625C904.306 90.9219 976.244 162.641 1066.7 177.703H888.936V354.813C873.561 264.448 801.629 192.729 711.171 177.703ZM356.702 177.703H178.936V354.813C163.566 264.448 91.6289 192.729 1.17578 177.703H178.936V0.5625C194.28 90.9219 266.212 162.641 356.702 177.703ZM593.369 177.703H415.603V354.813C400.233 264.448 328.296 192.729 237.837 177.703H415.603V0.5625C430.947 90.9219 502.879 162.641 593.369 177.703ZM830.035 177.703H652.27V354.813C636.895 264.448 564.962 192.729 474.504 177.703H652.27V0.5625C667.608 90.9219 739.577 162.641 830.035 177.703Z" fill="#FFD521"/>
</g>
</svg>
