<svg width="4305" height="295" viewBox="0 0 4305 295" fill="none" xmlns="http://www.w3.org/2000/svg">
<path d="M2102.13 248.068C2098.23 244.162 2098.23 237.831 2102.13 233.925L2145.27 190.792C2149.17 186.887 2155.5 186.887 2159.41 190.792L2202.54 233.925C2206.45 237.831 2206.45 244.162 2202.54 248.068L2159.41 291.201C2155.5 295.106 2149.17 295.106 2145.27 291.201L2102.13 248.068Z" fill="#F9336B"/>
<path d="M2102.13 60.9082C2098.23 57.0029 2098.23 50.6713 2102.13 46.7661L2145.27 3.63254C2149.17 -0.272698 2155.5 -0.272697 2159.41 3.63255L2202.54 46.7661C2206.45 50.6713 2206.45 57.003 2202.54 60.9082L2159.41 104.042C2155.5 107.947 2149.17 107.947 2145.27 104.042L2102.13 60.9082Z" fill="#FFB412"/>
<path d="M2169.41 155.343C2165.5 151.438 2165.5 145.106 2169.41 141.201L2215.98 94.6326C2222.28 88.3329 2244.36 87.2964 2252.91 89.8031C2450.27 147.672 4057.36 143.411 4304.34 148.272C3954.95 157.563 2442.82 149.449 2252.71 206.494C2244.18 209.054 2222.28 208.211 2215.98 201.912L2169.41 155.343Z" fill="white"/>
<path d="M2135.27 155.343C2139.17 151.438 2139.17 145.106 2135.27 141.201L2088.7 94.6326C2082.4 88.3329 2060.32 87.2964 2051.77 89.8031C1854.4 147.672 247.321 143.411 0.338867 148.272C349.732 157.563 1861.85 149.449 2051.97 206.494C2060.5 209.054 2082.4 208.211 2088.7 201.912L2135.27 155.343Z" fill="white"/>
<path d="M2199.63 155.343C2195.73 151.438 2195.73 145.106 2199.63 141.201L2228.63 112.21C2232.53 108.304 2238.86 108.304 2242.77 112.21L2271.76 141.201C2275.66 145.106 2275.66 151.438 2271.76 155.343L2242.77 184.335C2238.86 188.24 2232.53 188.24 2228.63 184.335L2199.63 155.343Z" fill="#9747FF"/>
<path d="M2034.42 155.343C2030.52 151.438 2030.52 145.106 2034.42 141.201L2063.41 112.21C2067.32 108.304 2073.65 108.304 2077.55 112.21L2106.55 141.201C2110.45 145.106 2110.45 151.438 2106.55 155.343L2077.55 184.335C2073.65 188.24 2067.32 188.24 2063.41 184.335L2034.42 155.343Z" fill="#191256"/>
</svg>
