<svg width="2251" height="127" viewBox="0 0 2251 127" fill="none" xmlns="http://www.w3.org/2000/svg">
<path d="M3.07151 70.2756C-0.833733 66.3703 -0.833732 60.0387 3.07151 56.1334L39.134 20.071C43.0392 16.1658 49.3708 16.1658 53.2761 20.071L89.3385 56.1334C93.2438 60.0387 93.2438 66.3703 89.3385 70.2756L53.2761 106.338C49.3708 110.243 43.0392 110.243 39.134 106.338L3.07151 70.2756Z" fill="white"/>
<path d="M10.0004 63.0624L46.0629 27L82.1253 63.0624L46.0629 99.1249L10.0004 63.0624Z" fill="#FFB412"/>
<path d="M53.0715 70.2462C49.1663 66.3409 49.1663 60.0093 53.0715 56.104L106.105 3.07102C110.01 -0.83422 116.341 -0.834221 120.247 3.07102L173.28 56.104C177.185 60.0093 177.185 66.3409 173.28 70.2462L120.247 123.279C116.341 127.184 110.01 127.184 106.105 123.279L53.0715 70.2462Z" fill="white"/>
<path d="M63.0004 63.2044L113.205 12.9998L163.41 63.2044L113.205 113.409L63.0004 63.2044Z" fill="#F9336B"/>
<path d="M116.071 70.071C112.165 66.1657 112.165 59.8341 116.071 55.9289L162.639 9.36032C168.939 3.06067 191.021 2.02413 199.57 4.53082C396.935 62.4001 2004.02 58.1392 2251 62.9999C1901.61 72.2906 389.484 64.1766 199.373 121.222C190.84 123.782 168.939 122.939 162.639 116.64L116.071 70.071Z" fill="white"/>
<path d="M146.295 70.071C142.389 66.1657 142.389 59.8341 146.295 55.9289L175.286 26.9375C179.191 23.0322 185.523 23.0322 189.428 26.9375L218.42 55.9289C222.325 59.8341 222.325 66.1657 218.42 70.071L189.428 99.0624C185.523 102.968 179.191 102.968 175.286 99.0624L146.295 70.071Z" fill="#9747FF"/>
</svg>
